<?xml version="1.0" standalone="no"?>
<!DOCTYPE svg PUBLIC "-//W3C//DTD SVG 1.1//EN" "http://www.w3.org/Graphics/SVG/1.1/DTD/svg11.dtd">
<svg width="100%" height="100%" viewBox="0 0 86 73" version="1.1" xmlns="http://www.w3.org/2000/svg" xmlns:xlink="http://www.w3.org/1999/xlink" xml:space="preserve" style="fill-rule:evenodd;clip-rule:evenodd;stroke-linecap:round;stroke-linejoin:round;stroke-miterlimit:1.41421;">
    <g transform="matrix(1.30384,3.48751e-16,2.58466e-16,0.224568,-533.404,-84.294)">
        <path d="M474.148,537.373C474.148,524.827 472.394,514.642 470.233,514.642L413.784,514.642C411.623,514.642 409.869,524.827 409.869,537.373C409.869,549.918 411.623,560.103 413.784,560.103L470.233,560.103C472.394,560.103 474.148,549.918 474.148,537.373Z" style="fill:rgb(255,242,0);"/>
    </g>
    <g transform="matrix(0.116358,-0.140332,0.128592,0.109195,-104.452,60.2469)">
        <ellipse cx="625.23" cy="584.518" rx="192.91" ry="208.029" style="fill:rgb(255,242,0);"/>
    </g>
    <g transform="matrix(0.0776018,-9.32222e-32,-3.14465e-32,0.0785318,-91.4107,-10.7857)">
        <path d="M1292.66,535.629C1304.16,455.414 1337.43,377.334 1393.31,310.746C1552.95,120.489 1837.02,95.636 2027.28,255.28C2115.44,329.252 2168.08,429.939 2183.31,535.629L2205.83,535.629C2241.71,535.629 2270.83,564.755 2270.83,600.629C2270.83,636.504 2241.71,665.629 2205.83,665.629L2183.2,665.629C2171.55,745.403 2138.33,823.015 2082.75,889.254C1923.1,1079.51 1639.03,1104.36 1448.77,944.72C1360.96,871.042 1308.39,770.86 1292.92,665.629L1255.83,665.629C1219.96,665.629 1190.83,636.504 1190.83,600.629C1190.83,564.755 1219.96,535.629 1255.83,535.629L1292.66,535.629Z" style="fill:none;stroke-width:25px;stroke:rgb(128,121,0);"/>
    </g>
    <g transform="matrix(0.0776018,-9.32222e-32,-3.14465e-32,0.0785318,-91.4107,-10.7857)">
        <path d="M1699.59,151.733C1814.1,141.913 1932.37,175.638 2027.28,255.28C2090.72,308.514 2135.77,375.584 2161.72,448.397C2048.28,556.54 1873.18,533.22 1720.94,453.464C1537.1,357.147 1416.16,376.169 1316.13,443.23C1333.58,396.21 1359.24,351.342 1393.31,310.746C1454.7,237.578 1534.5,188.873 1620.29,165.717L1699.59,151.733Z" style="fill:none;stroke-width:25px;stroke:rgb(128,121,0);"/>
    </g>
    <g transform="matrix(0.0764228,-0.0136369,0.0134754,0.0773387,-0.886937,7.25445)">
        <path d="M388.043,770.482C388.043,767.918 389.019,765.294 390.972,762.608L411.663,733.678C413.616,730.87 416.119,729.466 419.171,729.466C421.978,729.466 425.213,730.748 428.875,733.312C433.27,736.363 437.908,737.889 442.791,737.889C444.134,737.889 445.416,737.737 446.636,737.431C447.857,737.126 449.383,736.485 451.214,735.509C453.045,734.532 454.541,732.762 455.7,730.199C456.86,727.635 457.44,724.4 457.44,720.494L457.44,525.853C457.44,523.412 458.264,521.306 459.912,519.536C461.56,517.766 463.604,516.881 466.046,516.881L513.287,516.881C515.728,516.881 517.834,517.766 519.604,519.536C521.374,521.306 522.259,523.412 522.259,525.853L522.259,723.607C522.259,736.791 520.245,748.357 516.217,758.305C512.188,768.254 506.756,776.097 499.92,781.834C493.084,787.572 485.546,791.844 477.307,794.652C469.067,797.459 460.308,798.863 451.031,798.863C440.167,798.863 429.089,797.124 417.797,793.645C406.506,790.166 397.808,785.069 391.705,778.355C389.263,775.914 388.043,773.29 388.043,770.482Z" style="fill:black;fill-opacity:0.5;fill-rule:nonzero;"/>
    </g>
    <g transform="matrix(0.0776018,-9.32222e-32,-3.14465e-32,0.0785318,6.2665,-8.50582)">
        <path d="M132.244,601.659L132.244,598.729C132.244,596.288 133.129,594.182 134.899,592.412C136.669,590.642 138.897,589.757 141.583,589.757L190.472,589.757C193.157,589.757 195.385,590.642 197.155,592.412C198.925,594.182 199.81,596.288 199.81,598.729L199.81,604.222C199.81,617.162 203.625,627.416 211.254,634.984C218.884,642.552 229.84,646.336 244.122,646.336C258.404,646.336 269.329,642.552 276.898,634.984C284.466,627.416 288.25,617.162 288.25,604.222L288.25,449.132C288.25,446.69 289.166,444.554 290.997,442.723C292.828,440.892 295.025,439.977 297.589,439.977L346.478,439.977C349.163,439.977 351.391,440.892 353.161,442.723C354.931,444.554 355.816,446.69 355.816,449.132L355.816,601.659C355.816,620.335 352.917,636.693 347.119,650.731C341.32,664.769 333.233,675.877 322.857,684.056C312.481,692.235 300.732,698.308 287.609,702.275C274.487,706.242 259.991,708.226 244.122,708.226C231.549,708.226 219.799,707.036 208.874,704.656C197.949,702.275 187.725,698.369 178.204,692.937C168.682,687.505 160.565,680.73 153.851,672.612C147.137,664.494 141.857,654.393 138.012,642.308C134.167,630.223 132.244,616.673 132.244,601.659Z" style="fill:black;fill-rule:nonzero;"/>
    </g>
    <g transform="matrix(0.0776018,-9.32222e-32,-3.14465e-32,0.0785318,4.71446,-8.50582)">
        <path d="M605.572,693.211L605.572,449.132C605.572,446.69 606.488,444.554 608.319,442.723C610.15,440.892 612.347,439.977 614.91,439.977L663.616,439.977C666.18,439.977 668.377,440.892 670.208,442.723C672.039,444.554 672.955,446.69 672.955,449.132L672.955,539.403L768.353,539.403L768.353,449.132C768.353,446.69 769.238,444.554 771.008,442.723C772.778,440.892 775.006,439.977 777.691,439.977L826.397,439.977C829.083,439.977 831.311,440.892 833.081,442.723C834.851,444.554 835.736,446.69 835.736,449.132L835.736,693.211C835.736,695.897 834.851,698.125 833.081,699.895C831.311,701.665 829.083,702.55 826.397,702.55L777.691,702.55C775.006,702.55 772.778,701.665 771.008,699.895C769.238,698.125 768.353,695.897 768.353,693.211L768.353,603.124L672.955,603.124L672.955,693.211C672.955,695.897 672.07,698.125 670.3,699.895C668.53,701.665 666.302,702.55 663.616,702.55L614.91,702.55C612.225,702.55 609.997,701.665 608.227,699.895C606.457,698.125 605.572,695.897 605.572,693.211Z" style="fill:black;fill-rule:nonzero;"/>
        <path d="M664.673,427.571L665.736,427.644L666.805,427.769L667.875,427.947L668.942,428.18L670.001,428.469L671.047,428.812L672.074,429.209L673.079,429.659L674.055,430.157L675,430.702L675.909,431.29L676.78,431.915L677.612,432.576L678.403,433.267L679.15,433.982L679.857,434.719L680.532,435.487L681.179,436.293L681.793,437.137L682.371,438.017L682.909,438.931L683.404,439.878L683.852,440.852L684.25,441.851L684.595,442.87L684.886,443.903L685.123,444.947L685.305,445.996L685.434,447.045L685.509,448.091L685.53,448.987L685.53,526.977L755.778,526.977L755.778,448.992L755.798,448.11L755.869,447.085L755.991,446.055L756.163,445.025L756.388,443.999L756.666,442.981L756.995,441.976L757.375,440.99L757.803,440.025L758.278,439.086L758.796,438.176L759.354,437.299L759.947,436.456L760.573,435.648L761.229,434.875L761.925,434.125L762.68,433.381L763.491,432.655L764.345,431.965L765.241,431.315L766.177,430.707L767.147,430.148L768.148,429.64L769.175,429.186L770.222,428.788L771.284,428.446L772.355,428.162L773.43,427.934L774.504,427.761L775.574,427.64L776.637,427.57L777.554,427.55L826.534,427.55L827.452,427.57L828.514,427.64L829.584,427.761L830.658,427.934L831.734,428.162L832.805,428.446L833.866,428.787L834.914,429.186L835.94,429.64L836.941,430.148L837.912,430.708L838.847,431.315L839.743,431.965L840.598,432.656L841.409,433.381L842.163,434.125L842.858,434.875L843.515,435.648L844.142,436.456L844.735,437.299L845.292,438.176L845.81,439.086L846.285,440.025L846.714,440.99L847.093,441.977L847.422,442.979L847.7,443.997L847.925,445.025L848.098,446.055L848.219,447.084L848.291,448.112L848.311,448.993L848.311,693.338L848.292,694.228L848.227,695.254L848.115,696.284L847.953,697.319L847.74,698.359L847.474,699.394L847.155,700.421L846.781,701.439L846.353,702.441L845.872,703.421L845.339,704.377L844.759,705.301L844.135,706.191L843.469,707.044L842.765,707.858L842.027,708.632L841.254,709.369L840.438,710.075L839.58,710.744L838.683,711.374L837.75,711.959L836.785,712.497L835.791,712.985L834.776,713.419L833.741,713.799L832.694,714.125L831.64,714.395L830.584,714.612L829.528,714.776L828.477,714.891L827.433,714.957L826.53,714.976L777.559,714.976L776.655,714.957L775.612,714.891L774.561,714.776L773.505,714.612L772.448,714.395L771.394,714.125L770.347,713.799L769.313,713.419L768.297,712.985L767.304,712.497L766.338,711.959L765.405,711.374L764.508,710.744L763.651,710.075L762.835,709.37L762.061,708.632L761.323,707.858L760.62,707.044L759.954,706.191L759.329,705.301L758.749,704.376L758.217,703.421L757.736,702.441L757.308,701.44L756.933,700.422L756.614,699.393L756.348,698.357L756.135,697.32L755.974,696.284L755.862,695.253L755.796,694.229L755.778,693.339L755.778,615.55L685.53,615.55L685.53,693.339L685.511,694.229L685.446,695.253L685.334,696.284L685.172,697.32L684.96,698.357L684.694,699.393L684.374,700.422L684,701.44L683.572,702.441L683.091,703.421L682.559,704.376L681.979,705.301L681.354,706.191L680.688,707.044L679.984,707.858L679.247,708.632L678.473,709.37L677.657,710.075L676.8,710.744L675.903,711.374L674.969,711.959L674.004,712.497L673.01,712.985L671.995,713.419L670.961,713.799L669.913,714.125L668.859,714.395L667.803,714.612L666.747,714.776L665.696,714.891L664.653,714.957L663.749,714.976L614.778,714.976L613.874,714.957L612.831,714.891L611.78,714.776L610.724,714.612L609.668,714.395L608.614,714.125L607.566,713.799L606.532,713.419L605.516,712.985L604.523,712.497L603.558,711.959L602.624,711.374L601.728,710.744L600.87,710.075L600.054,709.37L599.28,708.632L598.542,707.858L597.839,707.044L597.173,706.192L596.548,705.301L595.968,704.376L595.436,703.421L594.955,702.442L594.527,701.44L594.152,700.421L593.833,699.393L593.567,698.358L593.354,697.321L593.193,696.284L593.081,695.252L593.015,694.229L592.997,693.339L592.997,448.987L593.018,448.091L593.093,447.046L593.221,445.996L593.404,444.947L593.64,443.903L593.932,442.869L594.277,441.851L594.675,440.852L595.123,439.877L595.617,438.931L596.156,438.017L596.734,437.137L597.348,436.294L597.995,435.487L598.67,434.719L599.376,433.982L600.124,433.267L600.915,432.576L601.747,431.915L602.618,431.29L603.528,430.702L604.472,430.157L605.448,429.659L606.453,429.209L607.48,428.812L608.526,428.469L609.585,428.18L610.652,427.947L611.722,427.769L612.79,427.644L613.854,427.571L614.767,427.55L663.76,427.55L664.673,427.571ZM614.91,439.977L614.434,439.987L613.966,440.019L613.507,440.073L613.056,440.148L612.614,440.245L612.181,440.363L611.756,440.502L611.34,440.663L610.932,440.846L610.533,441.049L610.143,441.275L609.761,441.522L609.387,441.79L609.022,442.079L608.666,442.391L608.319,442.723L607.986,443.07L607.675,443.424L607.385,443.785L607.117,444.154L606.87,444.529L606.645,444.912L606.441,445.302L606.259,445.699L606.098,446.103L605.958,446.514L605.84,446.932L605.744,447.358L605.669,447.791L605.615,448.231L605.583,448.678L605.572,449.132L605.572,693.211L605.582,693.71L605.614,694.197L605.665,694.674L605.738,695.14L605.831,695.595L605.945,696.04L606.08,696.473L606.236,696.896L606.412,697.309L606.609,697.71L606.827,698.101L607.065,698.481L607.325,698.851L607.605,699.21L607.906,699.558L608.227,699.895L608.564,700.216L608.912,700.517L609.271,700.797L609.64,701.056L610.021,701.295L610.411,701.513L610.813,701.71L611.225,701.886L611.648,702.042L612.082,702.176L612.527,702.291L612.982,702.384L613.448,702.456L613.925,702.508L614.412,702.539L614.91,702.55L663.616,702.55L664.115,702.539L664.602,702.508L665.079,702.456L665.545,702.384L666,702.291L666.445,702.176L666.878,702.042L667.301,701.886L667.714,701.71L668.115,701.513L668.506,701.295L668.886,701.056L669.256,700.797L669.615,700.517L669.963,700.216L670.3,699.895L670.621,699.558L670.922,699.21L671.202,698.851L671.461,698.481L671.7,698.101L671.918,697.71L672.115,697.309L672.291,696.896L672.447,696.473L672.581,696.04L672.696,695.595L672.789,695.14L672.861,694.674L672.913,694.197L672.944,693.71L672.955,693.211L672.955,603.124L768.353,603.124L768.353,693.211L768.363,693.71L768.394,694.197L768.446,694.674L768.519,695.14L768.612,695.595L768.726,696.04L768.861,696.473L769.017,696.896L769.193,697.309L769.39,697.71L769.608,698.101L769.846,698.481L770.106,698.851L770.386,699.21L770.686,699.558L771.008,699.895L771.345,700.216L771.693,700.517L772.052,700.797L772.421,701.056L772.801,701.295L773.192,701.513L773.594,701.71L774.006,701.886L774.429,702.042L774.863,702.176L775.308,702.291L775.763,702.384L776.229,702.456L776.706,702.508L777.193,702.539L777.691,702.55L826.397,702.55L826.895,702.539L827.383,702.508L827.86,702.456L828.326,702.384L828.781,702.291L829.225,702.176L829.659,702.042L830.082,701.886L830.495,701.71L830.896,701.513L831.287,701.295L831.667,701.056L832.037,700.797L832.395,700.517L832.743,700.216L833.081,699.895L833.402,699.558L833.703,699.21L833.983,698.851L834.242,698.481L834.481,698.101L834.698,697.71L834.896,697.309L835.072,696.896L835.227,696.473L835.362,696.04L835.476,695.595L835.57,695.14L835.642,694.674L835.694,694.197L835.725,693.71L835.736,693.211L835.736,449.132L835.725,448.678L835.694,448.231L835.642,447.791L835.57,447.358L835.476,446.932L835.362,446.514L835.227,446.103L835.072,445.699L834.896,445.302L834.698,444.912L834.481,444.529L834.242,444.154L833.983,443.785L833.703,443.424L833.402,443.07L833.081,442.723L832.743,442.391L832.395,442.079L832.037,441.79L831.667,441.522L831.287,441.275L830.896,441.049L830.495,440.846L830.082,440.663L829.659,440.502L829.225,440.363L828.781,440.245L828.326,440.148L827.86,440.073L827.383,440.019L826.895,439.987L826.397,439.977L777.691,439.977L777.193,439.987L776.706,440.019L776.229,440.073L775.763,440.148L775.308,440.245L774.863,440.363L774.429,440.502L774.006,440.663L773.594,440.846L773.192,441.049L772.801,441.275L772.421,441.522L772.052,441.79L771.693,442.079L771.345,442.391L771.008,442.723L770.686,443.07L770.386,443.424L770.106,443.785L769.846,444.154L769.608,444.529L769.39,444.912L769.193,445.302L769.017,445.699L768.861,446.103L768.726,446.514L768.612,446.932L768.519,447.358L768.446,447.791L768.394,448.231L768.363,448.678L768.353,449.132L768.353,539.403L672.955,539.403L672.955,449.132L672.944,448.678L672.912,448.231L672.858,447.791L672.783,447.358L672.687,446.932L672.569,446.514L672.429,446.103L672.268,445.699L672.086,445.302L671.882,444.912L671.657,444.529L671.41,444.154L671.142,443.785L670.852,443.424L670.541,443.07L670.208,442.723L669.861,442.391L669.504,442.079L669.14,441.79L668.766,441.522L668.384,441.275L667.994,441.049L667.595,440.846L667.187,440.663L666.771,440.502L666.346,440.363L665.912,440.245L665.47,440.148L665.02,440.073L664.561,440.019L664.093,439.987L663.616,439.977L614.91,439.977Z" style="fill:rgb(255,242,0);"/>
    </g>
    <g transform="matrix(0.0764228,-0.0136369,0.0134754,0.0773387,-21.8061,7.88745)">
        <path d="M717.081,502.93C717.081,491.822 720.987,482.361 728.8,474.549C736.612,466.736 746.073,462.83 757.181,462.83C768.289,462.83 777.75,466.736 785.562,474.549C793.375,482.361 797.281,491.822 797.281,502.93C797.281,514.038 793.375,523.529 785.562,531.403C777.75,539.276 768.289,543.213 757.181,543.213C746.073,543.213 736.612,539.276 728.8,531.403C720.987,523.529 717.081,514.038 717.081,502.93Z" style="fill:black;fill-rule:nonzero;"/>
    </g>
</svg>
